<svg height="512" viewBox="0 0 512 512" width="512" xmlns="http://www.w3.org/2000/svg"><g id="flat"><path d="m248 120v32.925a29.964 29.964 0 0 0 3.164 13.4l9.649 19.3a29.971 29.971 0 0 1 -8.824 37.381 29.974 29.974 0 0 0 -11.989 23.98v41.014h32v-25.43a45.464 45.464 0 0 1 8.469-26.426l6.506-9.11a45.467 45.467 0 0 0 -8.594-61.93 45.445 45.445 0 0 1 -10.581-12.111z" fill="#8c6239"/><path d="m260.542 223.008a29.971 29.971 0 0 0 8.825-37.381l-9.649-19.3a29.964 29.964 0 0 1 -3.164-13.4v-18.671l-8.554-14.256v32.925a29.964 29.964 0 0 0 3.164 13.4l9.649 19.3a29.971 29.971 0 0 1 -8.824 37.381 29.974 29.974 0 0 0 -11.989 23.98v41.014h8.554v-41.014a29.973 29.973 0 0 1 11.988-23.978z" fill="#82542e"/><path d="m328 296v32h16v8h80v-8-32z" fill="#faaa31"/><path d="m352 312h16v24h-16z" fill="#fa9a0c"/><path d="m384 312h16v24h-16z" fill="#fa9a0c"/><path d="m344 328h96v40h-96z" fill="#ffc841"/><path d="m368 344h16v24h-16z" fill="#ffa600"/><path d="m400 344h16v24h-16z" fill="#ffa600"/><path d="m208 264h96v40h-96z" fill="#faaa31"/><path d="m232 280h16v24h-16z" fill="#fa9a0c"/><path d="m264 280h16v24h-16z" fill="#fa9a0c"/><path d="m208 296v32h8v8h88v-8-32z" fill="#ffc841"/><path d="m232 312h16v24h-16z" fill="#ffa600"/><path d="m264 312h16v24h-16z" fill="#ffa600"/><path d="m216 328h96v40h-96z" fill="#faaa31"/><path d="m240 344h16v24h-16z" fill="#fa9a0c"/><path d="m272 344h16v24h-16z" fill="#fa9a0c"/><path d="m88 296v32 8h88v-8h8v-32z" fill="#faaa31"/><path d="m112 312h16v24h-16z" fill="#fa9a0c"/><path d="m144 312h16v24h-16z" fill="#fa9a0c"/><path d="m80 328h96v48h-96z" fill="#ffc841"/><path d="m104 344h16v32h-16z" fill="#ffa600"/><path d="m136 344h16v32h-16z" fill="#ffa600"/><path d="m152 56v24a56 56 0 0 0 56 56h40a56 56 0 0 0 -56-56h-16a24 24 0 0 1 -24-24z" fill="#8cc63f"/><path d="m248 120a80 80 0 0 1 80-80h24a16 16 0 0 0 16-16v16a80 80 0 0 1 -80 80z" fill="#39b54a"/><path d="m24 360h464v128h-464z" fill="#39b54a"/><g fill="#88d392"><path d="m24 448h464v16h-464z"/><path d="m24 416h464v16h-464z"/><path d="m24 384h464v16h-464z"/></g><path d="m232 360h48v128h-48z" fill="#009245"/></g></svg>