<?xml version="1.0"?>
<svg xmlns="http://www.w3.org/2000/svg" viewBox="0 0 512 512" width="512" height="512"><g id="Fill_out_line" data-name="Fill out line"><rect x="24" y="456" width="232" height="32" rx="15.99998" ry="15.99998" style="fill:#cbdbe7"/><rect x="224" y="456" width="200" height="32" rx="15.99998" ry="15.99998" style="fill:#adb9c3"/><path d="M155.57771,432.84458l80-160A16,16,0,0,1,249.88854,264H470.11146a16,16,0,0,1,14.31083,23.15542l-80,160A16,16,0,0,1,390.11146,456H169.88854A16,16,0,0,1,155.57771,432.84458Z" style="fill:#cbdbe7"/><path d="M155.57771,432.84458l80-160A16,16,0,0,1,249.88854,264H438.11146a16,16,0,0,1,14.31083,23.15542l-80,160A16,16,0,0,1,358.11146,456H169.88854A16,16,0,0,1,155.57771,432.84458Z" style="fill:#a9ca2a"/><path d="M192,232H128V75.77705A57.88846,57.88846,0,0,1,160,24l0,0,0,0a57.88846,57.88846,0,0,1,32,51.777Z" style="fill:#f5e3a1"/><path d="M128,232H80v0a57.94108,57.94108,0,0,1,16.97055-40.97053L128,160Z" style="fill:#f5c533"/><rect x="128" y="232" width="64" height="24" style="fill:#f5c533"/><rect x="136" y="256" width="48" height="24" style="fill:#ef8d04"/><path d="M192,232h48v0a57.94108,57.94108,0,0,0-16.97055-40.97053L192,160Z" style="fill:#f5c533"/><path d="M296,424a32.004,32.004,0,0,1-32,32H56a32,32,0,0,1,0-64c.19,0,.38,0,.57.00977a31.65918,31.65918,0,0,1,15.6,4.37011A39.99442,39.99442,0,0,1,112,360c.9,0,1.79.02979,2.68.08984a39.76048,39.76048,0,0,1,15.5,4.28028A81.79661,81.79661,0,0,0,136,334.06006V280h48v54.06006a81.79661,81.79661,0,0,0,5.82,30.31006,39.76048,39.76048,0,0,1,15.5-4.28028c.89-.06,1.78-.08984,2.68-.08984a39.99442,39.99442,0,0,1,39.83,36.37988,31.65918,31.65918,0,0,1,15.6-4.37011C263.62,392,263.81,392,264,392A32.004,32.004,0,0,1,296,424Z" style="fill:#91d3ee"/><path d="M490.52734,267.38281A23.84772,23.84772,0,0,0,470.11133,256H249.88867a23.87013,23.87013,0,0,0-21.46631,13.2666l-27.57763,55.15528,14.31054,7.15624,27.57764-55.15527A7.95642,7.95642,0,0,1,249.88867,272H438.11133a7.99951,7.99951,0,0,1,7.15576,11.57715l-80,160A7.95642,7.95642,0,0,1,358.11133,448H295.978a39.95779,39.95779,0,0,0-42.26764-62.63574,47.94482,47.94482,0,0,0-59.01184-31.47168A74.27941,74.27941,0,0,1,192,334.05859V264a8.00008,8.00008,0,0,0,8-8V240h40a8.00008,8.00008,0,0,0,8-8,65.51024,65.51024,0,0,0-19.314-46.62793L200,156.686V75.77734a65.528,65.528,0,0,0-36.42236-58.93261,7.99431,7.99431,0,0,0-7.15528,0A65.528,65.528,0,0,0,120,75.77734V156.686l-28.686,28.686A65.51024,65.51024,0,0,0,72,232a8.00008,8.00008,0,0,0,8,8h40v16a8.00008,8.00008,0,0,0,8,8v70.05859a74.277,74.277,0,0,1-2.69861,19.834,47.94441,47.94441,0,0,0-59.007,31.45752,39.97317,39.97317,0,0,0-39.09594,66.36426A23.99025,23.99025,0,0,0,40,496H408a24,24,0,0,0,4.71082-47.5332l78.86682-157.7334A23.848,23.848,0,0,0,490.52734,267.38281ZM136,240h48v8H136Zm81.37256-43.31348A49.56931,49.56931,0,0,1,231.3667,224H200V179.31348ZM136,75.77734A49.58078,49.58078,0,0,1,160,33.127a49.58078,49.58078,0,0,1,24,42.65039V224H136V75.77734ZM102.62744,196.68652,120,179.31348V224H88.6333A49.56931,49.56931,0,0,1,102.62744,196.68652ZM176,264v8H144v-8ZM56,400a24.05668,24.05668,0,0,1,8.035,1.38672,47.59163,47.59163,0,0,0,3.963,17.8164l14.66113-6.40624A32.02084,32.02084,0,0,1,112,368a32.11184,32.11184,0,0,1,7.3465.84326,74.19694,74.19694,0,0,1-13.00324,17.49951l11.31348,11.31446A89.354,89.354,0,0,0,144,334.05859V288h32v46.05859a89.354,89.354,0,0,0,26.34326,63.59864l11.31348-11.31446a74.197,74.197,0,0,1-13.00318-17.49951A32.04354,32.04354,0,0,1,240,400a31.76235,31.76235,0,0,1-2.65918,12.79688l14.66211,6.40624a47.608,47.608,0,0,0,3.96185-17.81A23.99669,23.99669,0,1,1,264,448H56a24,24,0,0,1,0-48ZM32,472a8.00917,8.00917,0,0,1,8-8H217.37622a23.94021,23.94021,0,0,0,0,16H40A8.00917,8.00917,0,0,1,32,472Zm384,0a8.00917,8.00917,0,0,1-8,8H240a8,8,0,0,1,0-16H408A8.00917,8.00917,0,0,1,416,472Zm61.26709-188.42285-80,160A7.95642,7.95642,0,0,1,390.11133,448h-9.167l78.6333-157.2666A23.82089,23.82089,0,0,0,460.73846,272h9.37287a7.99951,7.99951,0,0,1,7.15576,11.57715Z"/></g></svg>
