<svg height="512" viewBox="0 0 512 512" width="512" xmlns="http://www.w3.org/2000/svg"><g id="filled_outline" data-name="filled outline"><path d="m248 120v32.925a29.964 29.964 0 0 0 3.164 13.4l9.649 19.3a29.971 29.971 0 0 1 -8.824 37.381 29.974 29.974 0 0 0 -11.989 23.98v41.014h32v-25.43a45.464 45.464 0 0 1 8.469-26.426l6.506-9.11a45.467 45.467 0 0 0 -8.594-61.93 45.445 45.445 0 0 1 -10.581-12.111z" fill="#8c6239"/><path d="m260.542 223.008a29.971 29.971 0 0 0 8.825-37.381l-9.649-19.3a29.964 29.964 0 0 1 -3.164-13.4v-18.671l-8.554-14.256v32.925a29.964 29.964 0 0 0 3.164 13.4l9.649 19.3a29.971 29.971 0 0 1 -8.824 37.381 29.974 29.974 0 0 0 -11.989 23.98v41.014h8.554v-41.014a29.973 29.973 0 0 1 11.988-23.978z" fill="#82542e"/><path d="m328 296v32h16v8h80v-8-32z" fill="#faaa31"/><path d="m344 328h96v40h-96z" fill="#ffc841"/><path d="m208 264h96v40h-96z" fill="#faaa31"/><path d="m208 296v32h8v8h88v-8-32z" fill="#ffc841"/><path d="m216 328h96v40h-96z" fill="#faaa31"/><path d="m88 296v32 8h88v-8h8v-32z" fill="#faaa31"/><path d="m80 328h96v48h-96z" fill="#ffc841"/><path d="m152 56v24a56 56 0 0 0 56 56h40a56 56 0 0 0 -56-56h-16a24 24 0 0 1 -24-24z" fill="#8cc63f"/><path d="m248 120a80 80 0 0 1 80-80h24a16 16 0 0 0 16-16v16a80 80 0 0 1 -80 80z" fill="#39b54a"/><path d="m24 360h464v128h-464z" fill="#39b54a"/><path d="m232 360h48v128h-48z" fill="#009245"/><path d="m488 352h-40v-24a8 8 0 0 0 -8-8h-8v-24a8 8 0 0 0 -8-8h-96a8 8 0 0 0 -8 8v32a8 8 0 0 0 8 8h8v16h-16v-24a8 8 0 0 0 -8-8v-56a8 8 0 0 0 -8-8h-23.4a37.227 37.227 0 0 1 6.383-15.206l6.506-9.11a53.475 53.475 0 0 0 -10.107-72.827 37.349 37.349 0 0 1 -8.722-9.98l-12.53-20.877h25.87a88.1 88.1 0 0 0 88-88v-16a8 8 0 0 0 -16 0 8.009 8.009 0 0 1 -8 8h-24a88.153 88.153 0 0 0 -85.037 65.343 63.929 63.929 0 0 0 -50.963-25.343h-16a16.019 16.019 0 0 1 -16-16 8 8 0 0 0 -16 0v24a64.072 64.072 0 0 0 64 64h32v8.925a38.158 38.158 0 0 0 4.009 16.981l9.649 19.3a21.961 21.961 0 0 1 -6.469 27.4 38.156 38.156 0 0 0 -15.189 30.38v9.014h-24a8 8 0 0 0 -8 8v64a8 8 0 0 0 8 8v16h-24v-16a8 8 0 0 0 8-8v-32a8 8 0 0 0 -8-8h-96a8 8 0 0 0 -8 8v24a8 8 0 0 0 -8 8v24h-48a8 8 0 0 0 -8 8v128a8 8 0 0 0 8 8h464a8 8 0 0 0 8-8v-128a8 8 0 0 0 -8-8zm-8 32h-192v-16h192zm-256 32h-192v-16h192zm0 16v16h-192v-16zm16-64h32v112h-32zm48 64h192v16h-192zm0-16v-16h192v16zm48-112h80v16h-16v-8h-16v8h-16v-8h-16v8h-16zm16 32h80v16h-16v-8h-16v8h-16v-8h-16v8h-16zm-72-16v-8h-16v8h-16v-8h-16v8h-16v-16h80v16zm48-272h24a23.886 23.886 0 0 0 7.687-1.263 72.1 72.1 0 0 1 -71.687 65.263h-31.559a72.107 72.107 0 0 1 71.559-64zm-120 80a48.067 48.067 0 0 1 -47.852-44.209 31.8 31.8 0 0 0 15.852 4.209h16a48.078 48.078 0 0 1 47.333 40zm40 118.986a22.08 22.08 0 0 1 8.789-17.578 37.954 37.954 0 0 0 11.18-47.359l-9.65-19.3a22.083 22.083 0 0 1 -2.319-9.824v-4.042l4.936 8.226a53.307 53.307 0 0 0 12.447 14.243 37.472 37.472 0 0 1 7.083 51.032l-6.507 9.11a53.121 53.121 0 0 0 -9.559 24.506h-16.4zm48 25.014v16h-16v-8h-16v8h-16v-8h-16v8h-16v-16zm-72 64h80v16h-16v-8h-16v8h-16v-8h-16v8h-16zm-128-32h80v16h-16v-8h-16v8h-16v-8h-16v8h-16zm-8 32h80v16h-16v-8h-16v8h-16v-8h-16v8h-16zm136 32v16h-192v-16zm-192 96h192v16h-192zm256 16v-16h192v16z"/></g></svg>