<?xml version="1.0"?>
<svg xmlns="http://www.w3.org/2000/svg" viewBox="0 0 512 512" width="512" height="512"><g id="outline"><path d="M488,352H448V328a8,8,0,0,0-8-8h-8V296a8,8,0,0,0-8-8H328a8,8,0,0,0-8,8v32a8,8,0,0,0,8,8h8v16H320V328a8,8,0,0,0-8-8V264a8,8,0,0,0-8-8H280.6a37.227,37.227,0,0,1,6.383-15.206l6.506-9.11a53.475,53.475,0,0,0-10.107-72.827,37.349,37.349,0,0,1-8.722-9.98L262.13,128H288a88.1,88.1,0,0,0,88-88V24a8,8,0,0,0-16,0,8.009,8.009,0,0,1-8,8H328a88.153,88.153,0,0,0-85.037,65.343A63.929,63.929,0,0,0,192,72H176a16.019,16.019,0,0,1-16-16,8,8,0,0,0-16,0V80a64.072,64.072,0,0,0,64,64h32v8.925a38.158,38.158,0,0,0,4.009,16.981l9.649,19.3a21.961,21.961,0,0,1-6.469,27.4A38.156,38.156,0,0,0,232,246.986V256H208a8,8,0,0,0-8,8v64a8,8,0,0,0,8,8v16H184V336a8,8,0,0,0,8-8V296a8,8,0,0,0-8-8H88a8,8,0,0,0-8,8v24a8,8,0,0,0-8,8v24H24a8,8,0,0,0-8,8V488a8,8,0,0,0,8,8H488a8,8,0,0,0,8-8V360A8,8,0,0,0,488,352Zm-8,32H288V368H480ZM224,416H32V400H224Zm0,16v16H32V432Zm16-64h32V480H240Zm48,64H480v16H288Zm0-16V400H480v16Zm48-112h80v16H400v-8H384v8H368v-8H352v8H336Zm16,32h80v16H416v-8H400v8H384v-8H368v8H352Zm-72-16v-8H264v8H248v-8H232v8H216V304h80v16ZM328,48h24a23.886,23.886,0,0,0,7.687-1.263A72.1,72.1,0,0,1,288,112H256.441A72.107,72.107,0,0,1,328,48ZM208,128a48.067,48.067,0,0,1-47.852-44.209A31.8,31.8,0,0,0,176,88h16a48.078,48.078,0,0,1,47.333,40Zm40,118.986a22.08,22.08,0,0,1,8.789-17.578,37.954,37.954,0,0,0,11.18-47.359l-9.65-19.3A22.083,22.083,0,0,1,256,152.925v-4.042l4.936,8.226a53.307,53.307,0,0,0,12.447,14.243,37.472,37.472,0,0,1,7.083,51.032l-6.507,9.11A53.121,53.121,0,0,0,264.4,256H248ZM296,272v16H280v-8H264v8H248v-8H232v8H216V272Zm-72,64h80v16H288v-8H272v8H256v-8H240v8H224ZM96,304h80v16H160v-8H144v8H128v-8H112v8H96Zm-8,32h80v16H152v-8H136v8H120v-8H104v8H88Zm136,32v16H32V368ZM32,464H224v16H32Zm256,16V464H480v16Z"/></g></svg>
