<svg id="Layer_5" enable-background="new 0 0 64 64" height="512" viewBox="0 0 64 64" width="512" xmlns="http://www.w3.org/2000/svg"><g><g><g><path d="m60.08 45.25c1.25 1.79 1.92 3.92 1.92 6.11 0 5.87-4.77 10.64-10.64 10.64h-.72c-2.94 0-5.6-1.19-7.52-3.12-1.33-1.32-2.31-3-2.79-4.88-.22-.84-.33-1.73-.33-2.64 0-2.19.67-4.32 1.92-6.11l5.08-7.25h8z" fill="#cf9e76"/></g><g><path d="m49.08 30c.14-.57.47-1.07.92-1.43.45-.35 1.01-.57 1.63-.57h2.74c.73 0 1.38.3 1.86.77.47.48.77 1.13.77 1.86 0 .25-.03.49-.1.72l-1.9 6.65h-8l-3.17-3.17c-.24-.24-.43-.52-.57-.83-.17-.36-.26-.76-.26-1.17 0-1.56 1.27-2.83 2.83-2.83z" fill="#d3a06c"/></g><g><path d="m56 2h6c0 1.66-.67 3.16-1.76 4.24-1.08 1.09-2.58 1.76-4.24 1.76h-6c0-1.66.67-3.16 1.76-4.24 1.08-1.09 2.58-1.76 4.24-1.76z" fill="#a0d468"/></g><g><path d="m56 12h6c0 1.66-.67 3.16-1.76 4.24-1.08 1.09-2.58 1.76-4.24 1.76h-6c0-1.66.67-3.16 1.76-4.24 1.08-1.09 2.58-1.76 4.24-1.76z" fill="#a0d468"/></g><g><path d="m50 23h-4c-3.31 0-6-2.69-6-6h4c3.31 0 6 2.69 6 6z" fill="#b4dd7f"/></g><g><path d="m50 13h-6c-1.66 0-3.16-.67-4.24-1.76-1.09-1.08-1.76-2.58-1.76-4.24h6c1.66 0 3.16.67 4.24 1.76 1.09 1.08 1.76 2.58 1.76 4.24z" fill="#b4dd7f"/></g><g><path d="m22 10h2c1.1 0 2 .9 2 2v2c0 1.1-.9 2-2 2h-2-4-4-4-2c-1.1 0-2-.9-2-2v-2c0-1.1.9-2 2-2h2 4 4z" fill="#ffeaa7"/></g><g><path d="m18 26c0 1.1.9 2 2 2h-2-4-4-2c-1.1 0-2-.9-2-2v-2c0-1.1.9-2 2-2h2 4 4 2c-1.1 0-2 .9-2 2z" fill="#ffeaa7"/></g><g><path d="m36 28c1.1 0 2 .9 2 2v2c0 1.1-.9 2-2 2h-10-6c-1.1 0-2-.9-2-2v-2c0-1.1.9-2 2-2h2 4 4 4z" fill="#ffeaa7"/></g><g><path d="m24 16c1.1 0 2 .9 2 2v2c0 1.1-.9 2-2 2h-2-2-2-4-4-2c-1.1 0-2-.9-2-2v-2c0-1.1.9-2 2-2h2 4 4 4z" fill="#fcd770"/></g><g><path d="m18 32c0 1.1.9 2 2 2h-2-10c-1.1 0-2-.9-2-2v-2c0-1.1.9-2 2-2h2 4 4 2c-1.1 0-2 .9-2 2z" fill="#fcd770"/></g><g><path d="m34 22h2c1.1 0 2 .9 2 2v2c0 1.1-.9 2-2 2h-2-4-4-4-2c-1.1 0-2-.9-2-2v-2c0-1.1.9-2 2-2h2 2 2 4z" fill="#fcd770"/></g><g><path d="m20 34h6c-5.52 0-10 4.48-10 10s4.48 10 10 10h-18c0-3.31-2.69-6-6-6v-8c3.31 0 6-2.69 6-6h10z" fill="#b4dd7f"/></g><g><path d="m47 38-5.08 7.25c-1.25 1.79-1.92 3.92-1.92 6.11 0 .91.11 1.8.33 2.64h-14.33c5.52 0 10-4.48 10-10s-4.48-10-10-10h10 7.26c.14.31.33.59.57.83z" fill="#b4dd7f"/></g><g><path d="m8 54h-6v-6c3.31 0 6 2.69 6 6z" fill="#a0d468"/></g><g><path d="m2 34h6c0 3.31-2.69 6-6 6z" fill="#a0d468"/></g><g><circle cx="26" cy="44" fill="#fcd770" r="10"/></g></g><g><path d="m52 45.145v-2.145h-2v2.145c-1.155.366-2 1.435-2 2.709 0 1.088.604 2.065 1.578 2.553l1.949.975c.292.145.473.438.473.764 0 .47-.384.854-.854.854h-.291c-.471 0-.855-.384-.855-.854v-1.146h-2v1.146c0 1.275.845 2.344 2 2.709v2.145h2v-2.145c1.155-.366 2-1.435 2-2.709 0-1.088-.604-2.065-1.578-2.553l-1.949-.975c-.292-.145-.473-.438-.473-.764 0-.47.384-.854.854-.854h.291c.471 0 .855.384.855.854v.146h2v-.146c0-1.274-.845-2.343-2-2.709z"/><path d="m25 48.855v2.145h2v-2.145c1.155-.366 2-1.435 2-2.709 0-1.088-.604-2.065-1.578-2.553l-1.949-.975c-.292-.145-.473-.438-.473-.764 0-.47.384-.854.854-.854h.291c.471 0 .855.384.855.854v.146h2v-.146c0-1.275-.845-2.344-2-2.709v-2.145h-2v2.145c-1.155.366-2 1.435-2 2.709 0 1.088.604 2.065 1.578 2.553l1.949.975c.292.145.473.438.473.764 0 .47-.384.854-.854.854h-.291c-.471 0-.855-.384-.855-.854v-1.146h-2v1.146c0 1.274.845 2.343 2 2.709z"/><path d="m51 9h5c3.859 0 7-3.141 7-7v-1h-7c-3.859 0-7 3.141-7 7v.111c-1.272-1.301-3.042-2.111-5-2.111h-7v1c0 3.859 3.141 7 7 7h5v4 .111c-1.272-1.301-3.042-2.111-5-2.111h-5v1c0 3.859 3.141 7 7 7h3v4.143c-.239.253-.436.543-.595.857h-2.577c-2.11 0-3.828 1.718-3.828 3.828 0 .058.014.114.017.172h-3.201c.112-.314.184-.648.184-1v-2c0-.771-.301-1.468-.78-2 .48-.532.78-1.229.78-2v-2c0-1.654-1.346-3-3-3h-9.184c.112-.314.184-.648.184-1v-2c0-.771-.301-1.468-.78-2 .48-.532.78-1.229.78-2v-2c0-1.654-1.346-3-3-3h-16c-1.654 0-3 1.346-3 3v2c0 .771.301 1.468.78 2-.479.532-.78 1.229-.78 2v2c0 .771.301 1.468.78 2-.479.532-.78 1.229-.78 2v2c0 .771.301 1.468.78 2-.479.532-.78 1.229-.78 2v2c0 .352.072.686.184 1h-4.184v22h38.592c1.534 4.64 5.905 8 11.052 8h.711c6.421 0 11.645-5.224 11.645-11.645 0-2.401-.728-4.71-2.104-6.678l-4.803-6.861 1.767-6.187c.093-.324.14-.66.14-.997 0-2.003-1.629-3.632-3.632-3.632h-2.736c-.216 0-.426.027-.632.064v-3.064-1-4h5c3.859 0 7-3.141 7-7v-1h-7c-1.958 0-3.728.81-5 2.111v-.111zm5-6h4.899c-.464 2.279-2.484 4-4.899 4h-4.899c.464-2.279 2.484-4 4.899-4zm-12 9c-2.415 0-4.435-1.721-4.899-4h4.899c2.415 0 4.435 1.721 4.899 4zm2 10c-2.415 0-4.435-1.721-4.899-4h2.899c2.415 0 4.435 1.721 4.899 4zm-38 5c-.552 0-1-.448-1-1v-2c0-.552.448-1 1-1h1v2h2v-2h2v2h2v-2h2.184c-.112.314-.184.648-.184 1v2c0 .352.072.686.184 1zm18 8c4.963 0 9 4.037 9 9s-4.037 9-9 9-9-4.037-9-9 4.037-9 9-9zm-6-2c-.552 0-1-.448-1-1v-2c0-.552.448-1 1-1h1v2h2v-2h2v2h2v-2h2v2h2v-2h2v2h2v-2h1c.552 0 1 .448 1 1v2c0 .552-.448 1-1 1zm17-9v2c0 .552-.448 1-1 1h-16c-.552 0-1-.448-1-1v-2c0-.552.448-1 1-1h1v2h2v-2h1 1v2h2v-2h2v2h2v-2h2v2h2v-2h1c.552 0 1 .448 1 1zm-17-3h-2-10c-.552 0-1-.448-1-1v-2c0-.552.448-1 1-1h1v2h2v-2h2v2h2v-2h2v2h2v-2h2v2h2v-2h1c.552 0 1 .448 1 1v2c0 .552-.448 1-1 1zm-13-9c0-.552.448-1 1-1h1v2h2v-2h2v2h2v-2h2v2h2v-2h2v2h2v-2h1c.552 0 1 .448 1 1v2c0 .552-.448 1-1 1h-16c-.552 0-1-.448-1-1zm0 20v-2c0-.552.448-1 1-1h1v2h2v-2h2v2h2v-2h2.184c-.112.314-.184.648-.184 1v2c0 .352.072.686.184 1h-9.184c-.552 0-1-.448-1-1zm-.101 3c-.399 1.956-1.943 3.5-3.899 3.899v-3.899zm-3.899 14.101c1.956.399 3.5 1.943 3.899 3.899h-3.899zm5.92 3.899c-.441-3.059-2.861-5.479-5.92-5.92v-6.16c3.059-.441 5.479-2.861 5.92-5.92h9.08 1.695c-2.834 1.992-4.695 5.28-4.695 9s1.861 7.008 4.695 9zm23.385 0c2.834-1.992 4.695-5.28 4.695-9s-1.861-7.008-4.695-9h3.695 6.681c.131.188.274.37.44.535l2.579 2.579-4.595 6.564c-1.377 1.968-2.105 4.276-2.105 6.677 0 .56.053 1.106.13 1.645zm28.695-1.645c0 5.319-4.326 9.645-9.645 9.645h-.711c-5.318 0-9.644-4.326-9.644-9.645 0-1.989.603-3.901 1.743-5.531l4.778-6.824h6.959l4.777 6.824c1.14 1.63 1.743 3.542 1.743 5.531zm-6.632-22.355c.9 0 1.632.732 1.632 1.632 0 .151-.021.302-.063.448l-1.692 5.92h-6.831l-2.879-2.879c-.34-.34-.535-.811-.535-1.293 0-1.008.82-1.828 1.828-1.828h2.172v2h2v-2.368c0-.9.732-1.632 1.632-1.632zm1.632-16h4.899c-.465 2.279-2.484 4-4.899 4h-4.899c.464-2.279 2.484-4 4.899-4z"/></g></g></svg>