<svg id="Layer_3" enable-background="new 0 0 64 64" height="512" viewBox="0 0 64 64" width="512" xmlns="http://www.w3.org/2000/svg"><g><path d="m53 46h-3l-5 6-5-6h-12v-10h-6v14c0 2.209 1.791 4 4 4h5v8h31v-7c0-4.971-4.029-9-9-9z" fill="#c7e2fb"/><path d="m53 46h-3l-5 6-5-6h-12v-10h-6v14c0 2.209 1.791 4 4 4h5v7.943c11.696-.598 21.687-6.396 26.649-14.639-1.358-.822-2.945-1.304-4.649-1.304z" fill="#ebf7fe"/><path d="m2 2h60v40h-60z" fill="#669e54"/><path d="m2 35.171c4.212 1.182 8.758 1.829 13.5 1.829 21.815 0 39.5-13.655 39.5-30.5 0-1.529-.15-3.031-.431-4.5h-52.569z" fill="#85b176"/><path d="m31 61.943c11.696-.598 21.687-6.396 26.649-14.639-1.358-.822-2.945-1.304-4.649-1.304h-25v-10h-6v14c0 2.209 1.791 4 4 4h5z" fill="#ebf7fe"/><path d="m45 52-5-6h-4l3 9z" fill="#4472b0"/><g><path d="m45 52-2.8 1.4 1.8 3.6h2l1.8-3.6z" fill="#2d4d81"/></g><path d="m53.981 46.056c-.322-.035-.648-.056-.98-.056h-3.001l-5 6 6 3z" fill="#4472b0"/><path d="m54 33v2c0 4.971-4.029 9-9 9-4.971 0-9-4.029-9-9v-2h6c1.889 0 3.667-.889 4.8-2.4l1.2-1.6 1.2 1.6c1.133 1.511 2.911 2.4 4.8 2.4z" fill="#efbe9c"/><path d="m36 35v-2h-1.5c-1.381 0-2.5 1.119-2.5 2.5s1.119 2.5 2.5 2.5h2.023c-.333-.94-.523-1.946-.523-3z" fill="#efbe9c"/><g><path d="m45 20c-5.523 0-10 4.477-10 10v3h1 6c1.889 0 3.667-.889 4.8-2.4l1.2-1.6 1.2 1.6c1.133 1.511 2.911 2.4 4.8 2.4h1v-3c0-5.523-4.477-10-10-10z" fill="#976949"/></g><path d="m55.5 33h-1.5v2c0 1.054-.19 2.06-.523 3h2.023c1.381 0 2.5-1.119 2.5-2.5s-1.119-2.5-2.5-2.5z" fill="#efbe9c"/><path d="m45 44c-1.851 0-3.57-.56-5-1.518v3.518l5 6 5-6v-3.518c-1.43.958-3.149 1.518-5 1.518z" fill="#efbe9c"/><path d="m48 62-2-5h-2l-2 5z" fill="#4472b0"/><path d="m26.5 27c-.828 0-1.5.672-1.5 1.5v3.5h-1c-1.105 0-2 .895-2 2v2h6v-7.5c0-.828-.672-1.5-1.5-1.5z" fill="#efbe9c"/><g fill="#f5b95b"><path d="m6 6h6v16h-6z"/><path d="m16 8h6v14h-6z"/><path d="m26 10h6v12h-6z"/></g><g><path d="m62 43c.552 0 1-.448 1-1v-40c0-.552-.448-1-1-1h-60c-.552 0-1 .448-1 1v40c0 .552.448 1 1 1h19v7c0 2.757 2.243 5 5 5h4v7c0 .552.448 1 1 1h31c.552 0 1-.448 1-1v-7c0-5.514-4.486-10-10-10h-2v-2zm-9.388 4-2.196 6.59-3.84-1.92 3.892-4.67zm-25.612-16h-1v-2.5c0-.276.224-.5.5-.5s.5.224.5.5zm0 2v2h-4v-1c0-.551.449-1 1-1zm2 10h10v2h-10zm6.202-6h-.702c-.827 0-1.5-.673-1.5-1.5s.673-1.5 1.5-1.5h.5v1c0 .685.07 1.354.202 2zm19.798-2v-1h.5c.827 0 1.5.673 1.5 1.5s-.673 1.5-1.5 1.5h-.702c.132-.646.202-1.315.202-2zm-1-3c-1.565 0-3.061-.748-4-2l-1.2-1.6c-.377-.504-1.223-.504-1.6 0l-1.2 1.6c-.939 1.252-2.434 2-4 2h-6v-2c0-4.962 4.038-9 9-9s9 4.038 9 9zm-17 2h5c2.192 0 4.285-1.047 5.6-2.8l.4-.534.4.534c1.113 1.484 2.784 2.462 4.6 2.727v1.073c0 4.411-3.589 8-8 8s-8-3.589-8-8zm2.532 13 3.892 4.67-3.84 1.92-2.196-6.59zm5.145 11h.645l1.2 3h-3.045zm.705-2h-.764l-1.076-2.153 1.458-.729 1.458.729zm3.618-10.362-4 4.8-4-4.8v-1.479c1.226.538 2.578.841 4 .841s2.774-.303 4-.841zm-46-4.638v-18h32v-2h-2v-11c0-.552-.448-1-1-1h-6c-.552 0-1 .448-1 1v11h-2v-13c0-.552-.448-1-1-1h-6c-.552 0-1 .448-1 1v13h-2v-15c0-.552-.448-1-1-1h-6c-.552 0-1 .448-1 1v15h-2v-18h58v38h-8.019c.465-.617.865-1.284 1.178-2h1.341c1.93 0 3.5-1.57 3.5-3.5 0-1.758-1.308-3.204-3-3.449v-2.051c0-6.065-4.935-11-11-11s-11 4.935-11 11v2.051c-1.692.245-3 1.691-3 3.449 0 1.93 1.57 3.5 3.5 3.5h1.341c.314.716.713 1.383 1.178 2h-8.019v-5-7.5c0-1.378-1.122-2.5-2.5-2.5s-2.5 1.122-2.5 2.5v2.5c-1.654 0-3 1.346-3 3v2 5zm8-20h-4v-14h4zm10 0h-4v-12h4zm10 0h-4v-10h4zm-1 30v2h-4c-1.654 0-3-1.346-3-3v-13h4v9c0 .552.448 1 1 1h7.279l2.772 8.316c.092.275.298.497.566.607.123.052.253.077.383.077.153 0 .307-.035.447-.105l2.305-1.153 1.152 2.304-1.581 3.954h-9.323v-10zm31 4v6h-12.323l-1.582-3.955 1.152-2.304 2.305 1.153c.141.071.295.106.448.106.13 0 .26-.025.383-.076.268-.111.474-.333.566-.607l2.713-8.14c3.616.767 6.338 3.982 6.338 7.823z"/><path d="m42.414 14h6.586c.265 0 .52-.105.707-.293l5.293-5.293v1.586h2v-4c0-.552-.448-1-1-1h-4v2h1.586l-5 5h-6.586c-.265 0-.52.105-.707.293l-3 3 1.414 1.414z"/></g></g></svg>